<?xml version="1.0" encoding="UTF-8"?><svg id="Layer_1" xmlns="http://www.w3.org/2000/svg" viewBox="0 0 5307.46 1246.22"><defs><style>.cls-1{fill:#e6eaf0;}</style></defs><path class="cls-1" d="M1800.53,181.02c-471.19-237.18-498.5,328.93-621.1,643.68-11.15,28.61-53.75,32.11-70.08,5.71C943.5,562.4,958.14,0,563.98,0,343.99,0,162.65,119.39,0,239.68l.05.06c81.97,95.07,99.38,71.47,210.43,6.27,47.65-27.98,103.87-55.91,171.02-68.41,47.99-8.93,142.81-38.95,222.91,100.21,107.45,186.69,183.76,467.88,270.94,656.19,126.27,272.73,449.14,247.34,524.01,24.78,87.35-259.67,125.58-619.39,401.17-777.76Z"/><path class="cls-1" d="M5307.42,1006.49c-81.97-95.07-99.38-71.47-210.43-6.27-47.65,27.98-103.87,55.91-171.02,68.41-47.99,8.93-142.81,38.95-222.91-100.21-107.45-186.69-183.76-467.88-270.94-656.19-126.26-272.73-449.14-247.34-524.01-24.78-87.35,259.67-125.58,619.39-401.17,777.76,210.09,105.75,331.9,51.75,413.3-68.41h0c126.29-177.07,270.36-234.58,425.41-181.11,69.83,223.01,158.41,430.54,397.85,430.54,219.98,0,401.33-119.39,563.98-239.68l-.05-.06ZM4029.28,742.81c34-110.79,62.13-227.25,98.76-321.29,11.15-28.61,53.75-32.11,70.08-5.71,62.79,101.48,99.72,245.15,142.75,384.53-101.15-65.17-205.28-79.04-311.59-57.53Z"/><path class="cls-1" d="M2324.69,122.81c-128.22-42.46-268.35-28.01-394.56,40.74-8.98,4.89-17.77,10.1-26.45,15.46-78.4,48.42-144.02,115.52-191.42,195.09-16.56,27.8-30.95,57.07-42.82,87.64-49.62,127.76-51.02,263.87-3.96,383.25,50.13,127.17,148.36,220.59,276.58,263.07,48.26,15.98,98.17,23.9,148.42,23.9,83.28,0,167.42-21.77,246.14-64.64,118.49-64.54,211.07-170.44,260.69-298.2,49.62-127.76,51.02-263.87,3.96-383.25-50.13-127.16-148.36-220.58-276.58-263.06ZM2354.24,688.6c-56.44,145.34-205.28,234.65-325,194.96-119.72-39.66-173.18-195.96-116.74-341.3,47.35-121.93,159.71-204.4,265.37-204.4,20.29,0,40.35,3.05,59.63,9.44,119.72,39.66,173.18,195.96,116.74,341.29Z"/><path class="cls-1" d="M3663.62,758.48l-5.89-1.95c-116.8-38.69-245.69-12.91-338.72,62.94-14.78,12.05-30.59,22.71-47.25,31.78-58.93,32.09-121.51,39.78-176.2,21.68-54.7-18.12-97.71-60.8-121.12-120.17-26.48-67.15-24.92-145.69,4.38-221.13,56.45-145.34,205.3-234.61,325-194.97,31.34,10.38,58.82,28.81,80.98,53.83,33.14,37.4,87.94,51.82,137.19,35.5l146.43-48.52c-49.13-126.47-150.24-223.16-277.41-265.3-128.21-42.47-268.34-28.01-394.56,40.74-118.49,64.54-211.07,170.44-260.69,298.2-49.62,127.76-51.02,263.87-3.96,383.25,50.13,127.16,148.36,220.58,276.58,263.06,48.26,15.98,98.17,23.9,148.42,23.9,83.28,0,167.42-21.77,246.14-64.64,118.49-64.54,211.07-170.44,260.69-298.2Z"/></svg>